<svg width="1941" height="1597" viewBox="0 0 1941 1597" fill="none" xmlns="http://www.w3.org/2000/svg">
<g opacity="0.5">
<path d="M-354.275 827.745C-12.8129 910.264 -374.236 1154.7 -145.505 1382.26C64.1139 1590.81 551.804 1312.31 508.364 1831.52C478.623 2187 565.641 2338.23 836.357 2468.7" stroke="#4670DD" stroke-width="1.18846"/>
<path d="M-335.019 812.094C6.44345 894.613 -354.98 1139.04 -126.249 1366.61C83.3702 1575.16 571.06 1296.66 527.62 1815.87C497.879 2171.34 584.897 2322.58 855.613 2453.05" stroke="#4670DD" stroke-width="1.18846"/>
<path d="M-315.762 796.444C25.7 878.962 -335.723 1123.39 -106.992 1350.96C102.627 1559.51 590.317 1281.01 546.877 1800.22C517.136 2155.69 604.154 2306.93 874.87 2437.4" stroke="#4670DD" stroke-width="1.18846"/>
<path d="M-296.506 780.793C44.9564 863.312 -316.467 1107.74 -87.7358 1335.31C121.883 1543.86 609.573 1265.36 566.133 1784.57C536.392 2140.04 623.41 2291.28 894.126 2421.75" stroke="#4670DD" stroke-width="1.18846"/>
<path d="M-277.249 765.142C64.2127 847.661 -297.21 1092.09 -68.4794 1319.66C141.14 1528.21 628.829 1249.71 585.389 1768.92C555.648 2124.39 642.667 2275.63 913.383 2406.1" stroke="#4670DD" stroke-width="1.18846"/>
<path d="M-257.992 749.491C83.4696 832.01 -277.953 1076.44 -49.2226 1304.01C160.396 1512.55 648.086 1234.06 604.646 1753.27C574.905 2108.74 661.923 2259.98 932.639 2390.45" stroke="#4670DD" stroke-width="1.18846"/>
<path d="M-238.736 733.841C102.726 816.359 -258.697 1060.79 -29.9665 1288.35C179.652 1496.9 667.342 1218.41 623.902 1737.62C594.161 2093.09 681.179 2244.33 951.896 2374.8" stroke="#4670DD" stroke-width="1.18846"/>
<path d="M-219.48 718.19C121.982 800.709 -239.441 1045.14 -10.7101 1272.7C198.909 1481.25 686.599 1202.76 643.159 1721.97C613.418 2077.44 700.436 2228.68 971.152 2359.15" stroke="#4670DD" stroke-width="1.18846"/>
<path d="M-200.223 702.539C141.239 785.058 -220.184 1029.49 8.54672 1257.05C218.166 1465.6 705.855 1187.11 662.416 1706.32C632.675 2061.79 719.693 2213.03 990.409 2343.5" stroke="#4670DD" stroke-width="1.18846"/>
<path d="M-180.967 686.888C160.495 769.407 -200.928 1013.84 27.8031 1241.4C237.422 1449.95 725.112 1171.46 681.672 1690.66C651.931 2046.14 738.949 2197.37 1009.67 2327.85" stroke="#4670DD" stroke-width="1.18846"/>
<path d="M-161.71 671.238C179.752 753.756 -181.671 998.188 47.0594 1225.75C256.678 1434.3 744.368 1155.81 700.928 1675.01C671.187 2030.49 758.205 2181.72 1028.92 2312.2" stroke="#4670DD" stroke-width="1.18846"/>
<path d="M-142.454 655.587C199.008 738.105 -162.415 982.537 66.316 1210.1C275.935 1418.65 763.625 1140.15 720.185 1659.36C690.444 2014.84 777.462 2166.07 1048.18 2296.54" stroke="#4670DD" stroke-width="1.18846"/>
<path d="M-123.197 639.936C218.265 722.455 -143.158 966.886 85.5726 1194.45C295.192 1403 782.881 1124.5 739.441 1643.71C709.7 1999.19 796.719 2150.42 1067.43 2280.89" stroke="#4670DD" stroke-width="1.18846"/>
<path d="M-103.941 624.285C237.521 706.804 -123.902 951.236 104.829 1178.8C314.448 1387.35 802.137 1108.85 758.698 1628.06C728.957 1983.54 815.975 2134.77 1086.69 2265.24" stroke="#4670DD" stroke-width="1.18846"/>
<path d="M-84.6848 608.635C256.777 691.153 -104.646 935.585 124.085 1163.15C333.704 1371.7 821.394 1093.2 777.954 1612.41C748.213 1967.88 835.231 2119.12 1105.95 2249.59" stroke="#4670DD" stroke-width="1.18846"/>
<path d="M-65.428 592.984C276.034 675.502 -85.389 919.934 143.342 1147.5C352.961 1356.05 840.651 1077.55 797.211 1596.76C767.47 1952.23 854.488 2103.47 1125.2 2233.94" stroke="#4670DD" stroke-width="1.18846"/>
<path d="M-46.1719 577.333C295.29 659.852 -66.1329 904.283 162.598 1131.85C372.217 1340.4 859.907 1061.9 816.467 1581.11C786.726 1936.58 873.744 2087.82 1144.46 2218.29" stroke="#4670DD" stroke-width="1.18846"/>
<path d="M-26.9155 561.682C314.546 644.201 -46.8765 888.633 181.854 1116.2C391.473 1324.75 879.163 1046.25 835.723 1565.46C805.982 1920.93 893 2072.17 1163.72 2202.64" stroke="#4670DD" stroke-width="1.18846"/>
<path d="M-7.65869 546.031C333.803 628.55 -27.6197 872.982 201.111 1100.55C410.73 1309.09 898.42 1030.6 854.98 1549.81C825.239 1905.28 912.257 2056.52 1182.97 2186.99" stroke="#4670DD" stroke-width="1.18846"/>
<path d="M11.5974 530.381C353.059 612.899 -8.36361 857.331 220.367 1084.89C429.986 1293.44 917.676 1014.95 874.236 1534.16C844.495 1889.63 931.513 2040.87 1202.23 2171.34" stroke="#4670DD" stroke-width="1.18846"/>
</g>
</svg>
