<svg data-v-fde0c5aa="" xmlns="http://www.w3.org/2000/svg" viewBox="0 0 300 300" class="iconAbove"><!----><defs data-v-fde0c5aa=""><!----></defs><rect data-v-fde0c5aa="" fill="#EAEDF9" x="0" y="0" width="300px" height="300px" class="logo-background-square"></rect><defs data-v-fde0c5aa=""><!----></defs><g data-v-fde0c5aa="" id="d1bddd96-cab6-4504-b318-071a6de975a4" fill="#202A4F" transform="matrix(5.901256286923188,0,0,5.901256286923188,25.247434792273967,175.3169728454399)"><path d="M0.42 10.75L0.42 10.75L0.42 10.75Q0.42 9.65 0.60 8.75L0.60 8.75L0.60 8.75Q0.70 8.33 1.09 8.01L1.09 8.01L1.09 8.01Q1.72 7.42 2.23 7.13L2.23 7.13L2.23 7.13Q2.74 6.85 2.99 6.80L2.99 6.80L2.99 6.80Q3.23 6.76 3.64 6.76L3.64 6.76L3.64 6.76Q4.19 6.76 4.77 6.87L4.77 6.87L4.77 6.87Q5.36 6.99 5.54 7.06L5.54 7.06L5.54 7.06Q5.50 7.48 5.50 9.16L5.50 9.16L5.08 9.16L5.08 9.16Q4.94 8.54 4.86 8.26L4.86 8.26L4.86 8.26Q4.79 8.01 4.26 7.87L4.26 7.87L4.26 7.87Q3.72 7.73 3.07 7.73L3.07 7.73L3.07 7.73Q2.24 7.73 1.95 8.26L1.95 8.26L1.95 8.26Q1.67 8.79 1.67 10.30L1.67 10.30L1.67 10.30Q1.67 10.99 1.74 11.47L1.74 11.47L1.74 11.47Q1.81 11.96 2.00 12.38L2.00 12.38L2.00 12.38Q2.20 12.80 2.59 13.01L2.59 13.01L2.59 13.01Q2.98 13.23 3.57 13.23L3.57 13.23L3.57 13.23Q3.99 13.23 4.47 12.98L4.47 12.98L4.47 12.98Q4.94 12.74 5.21 12.49L5.21 12.49L5.49 12.24L5.78 12.52L5.78 12.52Q5.73 12.59 5.45 12.89L5.45 12.89L5.45 12.89Q5.18 13.20 5.07 13.32L5.07 13.32L5.07 13.32Q4.96 13.44 4.68 13.68L4.68 13.68L4.68 13.68Q4.41 13.92 4.21 14.02L4.21 14.02L4.21 14.02Q4.00 14.13 3.71 14.22L3.71 14.22L3.71 14.22Q3.42 14.31 3.11 14.31L3.11 14.31L3.11 14.31Q2.38 14.31 1.60 13.89L1.60 13.89L1.60 13.89Q1.02 13.37 0.62 12.43L0.62 12.43L0.62 12.43Q0.42 11.59 0.42 10.75ZM6.51 3.75L6.48 3.29L6.48 3.29Q7.08 3.23 7.57 3.15L7.57 3.15L7.57 3.15Q8.06 3.07 8.30 3.01L8.30 3.01L8.30 3.01Q8.54 2.95 8.58 2.95L8.58 2.95L8.58 2.95Q8.82 2.95 8.82 3.16L8.82 3.16L8.82 3.16Q8.82 3.22 8.81 3.61L8.81 3.61L8.81 3.61Q8.81 4.00 8.81 4.07L8.81 4.07L8.79 7.69L8.79 7.69Q10.42 6.78 11.48 6.78L11.48 6.78L11.48 6.78Q12.45 6.78 12.75 7.44L12.75 7.44L12.75 7.44Q13.06 8.11 13.06 9.62L13.06 9.62L13.06 9.62Q13.06 10.00 13.04 10.99L13.04 10.99L13.04 10.99Q13.02 11.98 13.02 12.59L13.02 12.59L13.02 12.59Q13.02 13.26 13.13 13.42L13.13 13.42L13.13 13.42Q13.23 13.58 13.73 13.64L13.73 13.64L13.73 14.11L11.07 14.11L11.07 13.64L11.07 13.64Q11.58 13.52 11.68 13.33L11.68 13.33L11.68 13.33Q11.77 13.13 11.77 12.28L11.77 12.28L11.77 9.77L11.77 9.77Q11.77 8.51 11.59 8.16L11.59 8.16L11.59 8.16Q11.40 7.80 10.70 7.80L10.70 7.80L10.70 7.80Q10.28 7.80 9.68 7.98L9.68 7.98L9.68 7.98Q9.09 8.16 8.79 8.36L8.79 8.36L8.79 8.36Q8.75 9.98 8.75 12.42L8.75 12.42L8.75 12.42Q8.75 13.20 8.87 13.40L8.87 13.40L8.87 13.40Q8.99 13.61 9.55 13.64L9.55 13.64L9.55 14.11L6.69 14.11L6.69 13.64L6.69 13.64Q7.15 13.61 7.34 13.47L7.34 13.47L7.34 13.47Q7.52 13.33 7.52 13.05L7.52 13.05L7.52 13.05Q7.52 11.73 7.53 9.77L7.53 9.77L7.53 9.77Q7.53 7.81 7.53 6.50L7.53 6.50L7.53 6.50Q7.53 4.47 7.39 4.11L7.39 4.11L7.39 4.11Q7.25 3.75 6.51 3.75L6.51 3.75ZM14.64 12.42L14.64 12.42L14.64 12.42Q14.64 11.93 14.74 11.55L14.74 11.55L14.74 11.55Q14.84 11.17 15.06 10.92L15.06 10.92L15.06 10.92Q15.29 10.67 15.51 10.50L15.51 10.50L15.51 10.50Q15.74 10.33 16.15 10.21L16.15 10.21L16.15 10.21Q16.56 10.09 16.86 10.03L16.86 10.03L16.86 10.03Q17.16 9.97 17.71 9.86L17.71 9.86L17.71 9.86Q18.26 9.76 18.59 9.69L18.59 9.69L18.59 9.69Q18.59 9.49 18.60 9.20L18.60 9.20L18.60 9.20Q18.61 8.90 18.61 8.85L18.61 8.85L18.61 8.85Q18.61 8.20 18.14 7.92L18.14 7.92L18.14 7.92Q17.68 7.64 17.08 7.64L17.08 7.64L17.08 7.64Q16.38 7.64 16.13 7.97L16.13 7.97L16.13 7.97Q15.88 8.30 15.58 9.38L15.58 9.38L15.01 9.32L15.01 9.32Q15.01 9.28 15.02 9.04L15.02 9.04L15.02 9.04Q15.02 8.79 15.06 8.60L15.06 8.60L15.06 8.60Q15.09 8.41 15.17 8.12L15.17 8.12L15.17 8.12Q15.25 7.83 15.43 7.61L15.43 7.61L15.43 7.61Q15.62 7.39 15.90 7.18L15.90 7.18L15.90 7.18Q16.18 6.97 16.65 6.86L16.65 6.86L16.65 6.86Q17.11 6.75 17.71 6.75L17.71 6.75L17.71 6.75Q18.33 6.75 18.76 6.89L18.76 6.89L18.76 6.89Q19.19 7.03 19.41 7.20L19.41 7.20L19.41 7.20Q19.63 7.38 19.75 7.68L19.75 7.68L19.75 7.68Q19.87 7.98 19.88 8.16L19.88 8.16L19.88 8.16Q19.89 8.34 19.89 8.62L19.89 8.62L19.89 8.62Q19.89 9.69 19.87 10.90L19.87 10.90L19.87 10.90Q19.84 12.11 19.84 12.32L19.84 12.32L19.84 12.32Q19.84 12.67 20.15 13.17L20.15 13.17L20.15 13.17Q20.47 13.66 20.47 13.75L20.47 13.75L20.47 13.75Q20.47 13.82 20.34 13.86L20.34 13.86L20.34 13.86Q19.36 14.18 19.26 14.18L19.26 14.18L19.26 14.18Q19.12 14.18 19.00 13.98L19.00 13.98L19.00 13.98Q18.89 13.78 18.79 13.48L18.79 13.48L18.79 13.48Q18.69 13.19 18.68 13.17L18.68 13.17L18.68 13.17Q18.47 13.31 18.16 13.52L18.16 13.52L18.16 13.52Q17.85 13.73 17.73 13.81L17.73 13.81L17.73 13.81Q17.61 13.89 17.39 14L17.39 14L17.39 14Q17.18 14.11 17.01 14.15L17.01 14.15L17.01 14.15Q16.84 14.20 16.59 14.22L16.59 14.22L16.59 14.22Q16.34 14.25 16.02 14.25L16.02 14.25L16.02 14.25Q15.29 14.25 14.97 13.72L14.97 13.72L14.97 13.72Q14.64 13.19 14.64 12.42ZM15.90 12.28L15.90 12.28L15.90 12.28Q15.90 13.31 16.84 13.31L16.84 13.31L16.84 13.31Q17.67 13.31 18.51 12.61L18.51 12.61L18.51 12.61Q18.61 12.53 18.61 11.42L18.61 11.42L18.61 11.42Q18.61 10.65 18.59 10.23L18.59 10.23L18.59 10.23Q18.34 10.32 17.95 10.44L17.95 10.44L17.95 10.44Q17.57 10.57 17.41 10.63L17.41 10.63L17.41 10.63Q17.25 10.68 16.98 10.77L16.98 10.77L16.98 10.77Q16.72 10.86 16.63 10.92L16.63 10.92L16.63 10.92Q16.53 10.98 16.37 11.06L16.37 11.06L16.37 11.06Q16.21 11.14 16.17 11.22L16.17 11.22L16.17 11.22Q16.13 11.30 16.04 11.40L16.04 11.40L16.04 11.40Q15.96 11.51 15.95 11.64L15.95 11.64L15.95 11.64Q15.93 11.77 15.92 11.92L15.92 11.92L15.92 11.92Q15.90 12.07 15.90 12.28ZM25.05 14.11L21.13 14.11L21.13 13.64L21.13 13.64Q21.46 13.59 21.57 13.59L21.57 13.59L21.57 13.59Q21.69 13.58 21.86 13.50L21.86 13.50L21.86 13.50Q22.04 13.43 22.06 13.36L22.06 13.36L22.06 13.36Q22.09 13.30 22.15 13.09L22.15 13.09L22.15 13.09Q22.20 12.88 22.20 12.67L22.20 12.67L22.20 12.67Q22.20 12.46 22.20 12.03L22.20 12.03L22.20 11.56L22.20 11.56Q22.20 8.75 22.11 8.26L22.11 8.26L22.11 8.26Q22.01 7.77 21.43 7.73L21.43 7.73L21.43 7.73Q21.35 7.71 21.29 7.71L21.29 7.71L21.27 7.18L21.27 7.18Q21.83 7.13 22.41 6.92L22.41 6.92L22.41 6.92Q23.00 6.71 23.16 6.71L23.16 6.71L23.16 6.71Q23.34 6.71 23.41 6.87L23.41 6.87L23.41 6.87Q23.48 7.03 23.48 7.45L23.48 7.45L23.49 7.98L23.49 7.98Q24.72 6.79 25.44 6.79L25.44 6.79L25.44 6.79Q25.96 6.79 26.15 6.92L26.15 6.92L26.15 6.92Q26.35 7.04 26.35 7.38L26.35 7.38L26.35 7.38Q26.35 7.49 26.12 8.89L26.12 8.89L25.62 8.89L25.62 8.89Q25.55 7.84 24.91 7.84L24.91 7.84L24.91 7.84Q24.54 7.84 24.02 8.17L24.02 8.17L24.02 8.17Q23.49 8.50 23.49 9.04L23.49 9.04L23.49 9.04Q23.49 9.44 23.48 11.01L23.48 11.01L23.48 11.01Q23.48 12.59 23.48 12.84L23.48 12.84L23.48 12.84Q23.48 13.27 23.73 13.40L23.73 13.40L23.73 13.40Q23.98 13.54 24.91 13.66L24.91 13.66L24.91 13.66Q25.00 13.68 25.05 13.68L25.05 13.68L25.05 14.11ZM30.02 14.11L26.71 14.11L26.71 13.64L26.71 13.64Q26.82 13.62 27.01 13.59L27.01 13.59L27.01 13.59Q27.19 13.55 27.24 13.54L27.24 13.54L27.24 13.54Q27.30 13.54 27.42 13.50L27.42 13.50L27.42 13.50Q27.54 13.45 27.57 13.43L27.57 13.43L27.57 13.43Q27.59 13.40 27.66 13.31L27.66 13.31L27.66 13.31Q27.73 13.23 27.74 13.15L27.74 13.15L27.74 13.15Q27.75 13.06 27.78 12.91L27.78 12.91L27.78 12.91Q27.80 12.77 27.80 12.60L27.80 12.60L27.80 12.60Q27.80 12.43 27.80 12.18L27.80 12.18L27.80 9.59L27.80 9.59Q27.80 8.15 27.76 4.98L27.76 4.98L27.75 4.31L27.75 4.31Q27.73 3.96 27.58 3.86L27.58 3.86L27.58 3.86Q27.43 3.77 26.96 3.77L26.96 3.77L26.78 3.77L26.75 3.30L26.75 3.30Q27.36 3.23 27.85 3.14L27.85 3.14L27.85 3.14Q28.34 3.05 28.57 3.00L28.57 3.00L28.57 3.00Q28.80 2.94 28.85 2.94L28.85 2.94L28.85 2.94Q29.09 2.94 29.09 3.15L29.09 3.15L29.09 3.15Q29.12 4.30 29.12 6.03L29.12 6.03L29.12 6.03Q29.12 7.74 29.05 9.70L29.05 9.70L29.05 9.70Q28.98 11.65 28.98 12.78L28.98 12.78L28.98 12.78Q28.98 13.31 29.14 13.43L29.14 13.43L29.14 13.43Q29.30 13.55 30.02 13.64L30.02 13.64L30.02 14.11ZM30.74 10.67L30.74 10.67L30.74 10.67Q30.74 9.25 31.05 8.53L31.05 8.53L31.05 8.53Q31.28 8.01 32.13 7.40L32.13 7.40L32.13 7.40Q32.98 6.79 33.73 6.79L33.73 6.79L33.73 6.79Q34.37 6.79 34.86 6.94L34.86 6.94L34.86 6.94Q35.35 7.10 35.63 7.40L35.63 7.40L35.63 7.40Q35.91 7.70 36.09 7.99L36.09 7.99L36.09 7.99Q36.26 8.27 36.32 8.70L36.32 8.70L36.32 8.70Q36.39 9.13 36.41 9.38L36.41 9.38L36.41 9.38Q36.43 9.63 36.43 10.00L36.43 10.00L36.43 10.00Q36.43 10.12 36.43 10.18L36.43 10.18L36.43 10.18Q35.98 10.46 34.96 10.46L34.96 10.46L32.09 10.46L32.09 10.46Q32.09 10.91 32.10 11.15L32.10 11.15L32.10 11.15Q32.12 11.40 32.16 11.78L32.16 11.78L32.16 11.78Q32.20 12.17 32.32 12.38L32.32 12.38L32.32 12.38Q32.44 12.60 32.63 12.82L32.63 12.82L32.63 12.82Q32.83 13.05 33.15 13.15L33.15 13.15L33.15 13.15Q33.47 13.24 33.91 13.24L33.91 13.24L33.91 13.24Q35.13 13.24 36.13 12.25L36.13 12.25L36.44 12.57L36.44 12.57Q36.39 12.63 36.18 12.85L36.18 12.85L36.18 12.85Q35.97 13.06 35.90 13.13L35.90 13.13L35.90 13.13Q35.83 13.20 35.63 13.39L35.63 13.39L35.63 13.39Q35.43 13.58 35.33 13.65L35.33 13.65L35.33 13.65Q35.22 13.72 35.03 13.86L35.03 13.86L35.03 13.86Q34.85 14 34.71 14.06L34.71 14.06L34.71 14.06Q34.58 14.11 34.39 14.19L34.39 14.19L34.39 14.19Q34.20 14.27 34.01 14.29L34.01 14.29L34.01 14.29Q33.82 14.32 33.63 14.32L33.63 14.32L33.63 14.32Q32.79 14.32 32.19 13.99L32.19 13.99L32.19 13.99Q31.60 13.66 31.30 13.10L31.30 13.10L31.30 13.10Q31.00 12.54 30.87 11.95L30.87 11.95L30.87 11.95Q30.74 11.35 30.74 10.67ZM32.12 9.83L32.12 9.83L32.91 9.83L32.91 9.83Q34.78 9.83 35.13 9.58L35.13 9.58L35.13 9.58Q35.13 9.28 35.07 9.00L35.07 9.00L35.07 9.00Q35.01 8.72 34.87 8.41L34.87 8.41L34.87 8.41Q34.73 8.09 34.43 7.90L34.43 7.90L34.43 7.90Q34.12 7.70 33.67 7.70L33.67 7.70L33.67 7.70Q32.72 7.70 32.42 8.17L32.42 8.17L32.42 8.17Q32.12 8.64 32.12 9.83ZM37.49 9.10L37.49 9.10L37.49 9.10Q37.49 8.43 37.73 8.06L37.73 8.06L37.73 8.06Q38.23 7.25 38.68 7.01L38.68 7.01L38.68 7.01Q39.13 6.76 40.01 6.76L40.01 6.76L40.01 6.76Q40.53 6.76 41.09 7L41.09 7L41.09 7Q41.24 7.06 41.32 7.10L41.32 7.10L41.32 7.10Q41.40 7.15 41.48 7.30L41.48 7.30L41.48 7.30Q41.57 7.45 41.57 7.69L41.57 7.69L41.57 7.69Q41.57 7.73 41.55 7.90L41.55 7.90L41.55 7.90Q41.54 8.08 41.53 8.39L41.53 8.39L41.53 8.39Q41.52 8.69 41.52 9.06L41.52 9.06L41.01 9.06L41.01 9.06Q40.99 8.88 40.89 8.53L40.89 8.53L40.89 8.53Q40.78 8.18 40.66 7.99L40.66 7.99L40.66 7.99Q40.38 7.59 39.61 7.59L39.61 7.59L39.61 7.59Q39.23 7.59 38.98 7.69L38.98 7.69L38.98 7.69Q38.72 7.80 38.62 7.96L38.62 7.96L38.62 7.96Q38.51 8.12 38.47 8.25L38.47 8.25L38.47 8.25Q38.43 8.39 38.43 8.51L38.43 8.51L38.43 8.51Q38.43 8.96 38.78 9.23L38.78 9.23L38.78 9.23Q39.13 9.51 39.63 9.67L39.63 9.67L39.63 9.67Q40.14 9.84 40.65 10.04L40.65 10.04L40.65 10.04Q41.16 10.25 41.51 10.72L41.51 10.72L41.51 10.72Q41.86 11.19 41.86 11.90L41.86 11.90L41.86 11.90Q41.86 12.64 41.65 12.99L41.65 12.99L41.65 12.99Q41.27 13.59 40.75 14L40.75 14L40.75 14Q40.54 14.15 40.10 14.25L40.10 14.25L40.10 14.25Q39.65 14.35 39.42 14.35L39.42 14.35L39.42 14.35Q37.93 14.35 37.63 13.85L37.63 13.85L37.63 13.85Q37.52 13.66 37.52 13.37L37.52 13.37L37.52 13.37Q37.52 12.24 37.58 11.98L37.58 11.98L37.58 11.98Q37.65 11.72 37.90 11.72L37.90 11.72L37.90 11.72Q38.11 11.72 38.16 11.91L38.16 11.91L38.16 11.91Q38.22 12.11 38.27 12.45L38.27 12.45L38.27 12.45Q38.32 12.80 38.47 13.01L38.47 13.01L38.47 13.01Q38.79 13.45 39.63 13.45L39.63 13.45L39.63 13.45Q40.25 13.45 40.60 13.17L40.60 13.17L40.60 13.17Q40.95 12.89 40.95 12.40L40.95 12.40L40.95 12.40Q40.95 11.93 40.59 11.65L40.59 11.65L40.59 11.65Q40.24 11.37 39.72 11.21L39.72 11.21L39.72 11.21Q39.21 11.05 38.71 10.86L38.71 10.86L38.71 10.86Q38.21 10.67 37.85 10.23L37.85 10.23L37.85 10.23Q37.49 9.80 37.49 9.10Z"></path></g><defs data-v-fde0c5aa=""><linearGradient data-v-fde0c5aa="" gradientTransform="rotate(25)" id="0fb37a3a-f98f-4610-9757-0040d9d1b69d" x1="0%" y1="0%" x2="100%" y2="0%"><stop data-v-fde0c5aa="" offset="0%" stop-color="#395ECA" stop-opacity="1"></stop><stop data-v-fde0c5aa="" offset="100%" stop-color="#848BD8" stop-opacity="1"></stop></linearGradient></defs><g data-v-fde0c5aa="" id="297d6eb9-6dce-4ad0-9e21-4c1ba2229c11" stroke="none" fill="url(#0fb37a3a-f98f-4610-9757-0040d9d1b69d)" transform="matrix(4.208333333333333,0,0,4.208333333333333,82.66666666666667,40)"><path d="M11.579 32H32L21.789 14.314z"></path><circle cx="8.683" cy="8.683" r="8.683"></circle></g><!----></svg>